<svg xmlns="http://www.w3.org/2000/svg" width="682.667" height="682.667" preserveAspectRatio="xMidYMid meet" version="1.0" viewBox="0 0 512 512"><metadata>Created by potrace 1.16, written by Peter Selinger 2001-2019</metadata><g fill="#000" stroke="none"><path d="M0 2560 l0 -2560 2560 0 2560 0 0 2560 0 2560 -2560 0 -2560 0 0 -2560z m2620 1681 c94 -50 99 -188 10 -239 -38 -22 -50 -51 -50 -117 0 -60 -4 -57 86 -69 63 -9 179 -51 242 -88 93 -54 212 -180 260 -274 32 -62 57 -94 106 -138 75 -66 106 -122 106 -192 -1 -68 -29 -123 -89 -174 -58 -49 -80 -104 -84 -206 -2 -66 -20 -51 163 -138 153 -73 252 -140 359 -242 131 -124 227 -274 280 -437 19 -56 22 -85 19 -170 -3 -88 -7 -109 -31 -157 -41 -80 -116 -152 -201 -191 -65 -31 -80 -34 -166 -34 -89 0 -100 2 -171 36 -49 24 -93 55 -128 90 -56 56 -147 178 -162 217 l-9 22 -615 0 -616 0 -17 -31 c-34 -63 -129 -185 -178 -228 -27 -24 -78 -58 -114 -75 -59 -28 -74 -31 -165 -31 -94 0 -104 2 -169 35 -262 131 -307 408 -118 725 84 142 192 253 347 357 86 58 251 145 343 180 40 16 42 19 42 57 0 63 -20 144 -42 168 -11 12 -39 33 -62 48 -81 51 -121 151 -97 243 14 49 73 113 141 153 36 20 53 40 84 100 107 204 263 322 481 365 50 10 96 22 103 27 7 6 12 32 12 64 0 53 -1 56 -55 108 -55 52 -55 53 -55 112 0 47 5 67 22 88 42 54 125 70 188 36z m460 -2760 c0 -20 -90 -218 -109 -239 l-20 -22 -418 2 -418 3 -32 65 c-17 36 -39 90 -49 120 -9 30 -19 61 -22 68 -3 9 107 12 532 12 314 0 536 -4 536 -9z m-270 -500 c0 -18 -145 -142 -194 -166 -93 -46 -133 -32 -283 102 -35 30 -60 59 -57 64 7 12 534 12 534 0z" transform="translate(0.000000,512.000000) scale(0.100000,-0.100000)"/><path d="M2465 3669 c-157 -23 -302 -118 -392 -256 -38 -59 -49 -85 -69 -161 -18 -67 -18 -221 0 -287 70 -266 316 -434 599 -411 292 24 507 262 507 562 0 201 -113 390 -294 492 -95 54 -235 79 -351 61z m-46 -465 c30 -38 30 -150 0 -188 -26 -33 -73 -35 -106 -4 -20 19 -23 31 -23 100 0 65 3 81 20 98 30 30 83 27 109 -6z m363 9 c24 -22 26 -167 2 -201 -20 -29 -70 -29 -101 0 -20 19 -23 31 -23 100 0 65 3 81 20 98 24 24 77 26 102 3z" transform="translate(0.000000,512.000000) scale(0.100000,-0.100000)"/><path d="M2066 2278 c-11 -34 -25 -223 -18 -230 4 -4 231 -7 503 -6 l494 3 -2 25 c-2 14 -6 69 -9 123 l-7 97 -479 0 c-374 0 -479 -3 -482 -12z" transform="translate(0.000000,512.000000) scale(0.100000,-0.100000)"/></g></svg>